<svg width="24" height="25" viewBox="0 0 24 25" fill="none" xmlns="http://www.w3.org/2000/svg">
<path d="M12 15.45C11.8667 15.45 11.7417 15.4292 11.625 15.3875C11.5083 15.3458 11.4 15.275 11.3 15.175L6.7 10.575C6.51667 10.3917 6.425 10.1583 6.425 9.875C6.425 9.59167 6.51667 9.35833 6.7 9.175C6.88334 8.99167 7.11667 8.9 7.4 8.9C7.68334 8.9 7.91667 8.99167 8.1 9.175L12 13.075L15.9 9.175C16.0833 8.99167 16.3167 8.9 16.6 8.9C16.8833 8.9 17.1167 8.99167 17.3 9.175C17.4833 9.35833 17.575 9.59167 17.575 9.875C17.575 10.1583 17.4833 10.3917 17.3 10.575L12.7 15.175C12.6 15.275 12.4917 15.3458 12.375 15.3875C12.2583 15.4292 12.1333 15.45 12 15.45Z" fill="#154FBF"/>
</svg>
